<svg role="img" viewBox="0 0 82.6 69.6" xmlns="http://www.w3.org/2000/svg" x="1em" y="1em">
	 <path d="M82.6,33.4c-0.2-1.1-1.8-1.6-2.7-1.5c-0.6,0-1.2,0.1-1.7,0.1c0.3-0.3,0.6-0.6,0.6-1.1c0-1-1.2-1.6-2.1-1.7
		c-0.2,0-0.4,0-0.6,0l0,0l0,0c-4.7-0.3-9.4-0.5-14-0.6c0.7-0.1,1.5-0.1,2.2-0.2c0.9-0.1,2.1-0.5,1.9-1.7c-0.2-1.1-1.8-1.5-2.7-1.5
		c-4.5,0.1-9.1,0.3-13.6,0.6c4.9-6.8,9.3-14,13.1-21.5c1-2-3.1-2.7-4.1-1.5c-1,1.2-2.1,2.4-3.1,3.6c-0.9-0.1-1.8,0-2.2,0.5
		c-4.1,4.8-8.3,9.6-12.4,14.4c-0.1-1.1-0.2-2.2-0.3-3.3c-0.2-2-0.6-4.1-0.8-6.1c0-3,0-6-0.1-9c0-1.4-2.6-0.3-2.8,0.7
		c-0.1,0.5-0.2,1.1-0.2,1.6c-0.2-0.8-0.3-1.6-0.5-2.4c0,0,0-0.1,0-0.1c0-0.7,0-1.4-0.1-2c0-1.4-2.8-0.4-2.8,0.9
		c0,1.4,0.1,2.8,0.1,4.1c-0.5,0.1-1.1,0.5-1,1.1c0.1,0.5,0.6,0.8,1.1,0.9c0.2,5.6,0.4,11.2,0.6,16.8c-1.9-2.1-3.7-4.3-5.6-6.4
		c-3.2-3.7-6.4-7.4-9.7-11.1c-0.2-0.2-0.4-0.3-0.7-0.4c-1.9-2.3-4-4.4-6.4-6.3c-1.2-0.9-4.9,0.3-3.6,2c2.2,2.9,4.4,5.8,6.6,8.7
		c0,0.1,0.1,0.2,0.2,0.4c3.3,5.6,6.9,10.9,10.7,16.1c-6.7,0.6-13.3,1.3-20,2.1c-0.9,0.1-2.1,0.5-1.9,1.7c0.1,0.2,0.2,0.5,0.4,0.7
		c-1.1,0.2-2.1,0.3-3.2,0.5c-0.9,0.2-1.6,0.9-1.2,1.8c0.4,0.9,1.7,1.4,2.6,1.3C5,35.4,7.3,35.2,9.5,35c0,0.1,0,0.1,0.1,0.2
		c0.4,1,1.7,1.3,2.6,1.3c5.4,0.2,10.7,0.2,16.1,0.2c-2.3,2.9-4.7,5.8-7,8.8c-2.9,3.7-5.7,7.5-8.5,11.3c-0.4,0.6-0.4,1.1-0.1,1.5
		c-2,2.9-3.8,6-5.4,9.2c-1,2,3,2.7,4.1,1.5c6.2-6.8,12.2-13.8,18-21c0.8,0.1,1.6,0,2.1-0.5c1.3-1.3,2.5-2.6,3.7-3.9
		c0.3,5.6,0.6,11.2,1,16.8c0,0.3,0.1,0.5,0.3,0.6c0.1,1.4,0.1,2.8,0.2,4.1c0.1,1.5,2.5,0.2,2.8-0.7c0.3-1.2,0.5-2.5,0.5-3.7
		c0.7-4.9,1.1-9.9,1.3-14.9c1,1.1,2,2.1,3.1,3.2c3.2,3.2,6.5,6.2,9.9,9.1c0.7,0.6,2.3,0.3,3.2-0.3c0.6,0.6,1.2,1.2,1.8,1.8
		c1.2,1.2,4.9-0.5,3.6-2c-6.1-7-12.1-13.9-18.2-20.9c6.9-0.1,13.8-0.3,20.7-0.7c5-0.2,10.1-0.5,15.1-0.9
		C81.6,35,82.8,34.6,82.6,33.4z M44.1,33.5c0.2-0.3,0.5-0.5,0.7-0.8c5.2-0.2,10.5-0.3,15.8-0.3c4.1,0,8.2,0,12.3,0.1
		C63.2,32.9,53.6,33.3,44.1,33.5z"/>
</svg>
