<svg viewBox="0 0 84.4132 80.0319" xmlns="http://www.w3.org/2000/svg" fill="hsl(53, 100%, 64%)">
  <path d="m12.5653,1.5434c-2.08,0-4.09.68-5.73,1.87C3.4653,4.2534,1.5853,7.4134.6253,10.6634c-1.05,3.55-.87,7.58,1.25,10.72,1.96,2.89,5.31,4.99,8.84,5.2,1.51.09,2.9-.2,4.15-.78.95-.04,1.89-.22,2.81-.55,3.24-1.18,5.59-4.02,6.37-7.34,1.66-6.99-3.79-16.38-11.48-16.37Zm1.68,18.35c-.9.23-1.72.26-2.58.15-.74-.09-1.42-.37-1.95-.83-2.35-2.01-3.08-5.54-2.3-8.58.55-.71,1.28-1.3,2.13-1.68,1.87-.83,4.58-.94,6.2.51,1.9,1.71,1.43,4.99.75,7.15-.31.98-.73,2-1.27,2.95-.32.12-.65.24-.98.33Z"/>
  <path d="m39.7653,17.8834h-.02c-.05.02-.1.04-.16.05.01.01.08-.01.18-.05Z"/>
  <path d="m44.8653,17.5234c-1.72-2.47-5.15-3.67-7.93-2.35-.03.02-.06.04-.09.06-1.37.58-2.46,1.74-2.91,3.14-.25.13-.46.33-.58.63-.9,2.33.63,4.83,2.63,6.02,1.34.8,2.88,1.05,4.31.74,1.57-.05,3.12-.7,4.21-1.9,1.61-1.79,1.73-4.37.36-6.34Zm-5.49.45c.06-.02.13-.03.2-.04-.02-.01.03-.04.14-.05h.03c.01,0,.02-.01.03-.01-.06-.02-.05-.03.01-.03.01,0,.02.01.04.01h.01-.01q.01,0,.02.01s-.01,0-.01-.01c.01,0,.02,0,.04.01.01,0,.01.01.02.01h0c.01.01.02.01.03.01h-.01c.02.01.03.02.05.03.01.01.01.02.02.03l-.02-.01c.02.02.04.03.05.05.03.04.06.08.09.12.05.07.09.15.14.22q.01.02.02.03c.09.17.15.35.21.53l.06.21c0,.01.01.02.01.03v.01c.02.18.04.36.04.55,0,.18-.02.37-.03.55v.02c-.01.05-.03.1-.04.14-.09.36-.22.71-.39,1.03-.01.02-.09.14-.1.17-.04.06-.09.13-.1.14-.11.15-.23.29-.35.42-.05.05-.1.1-.15.15-.02.02-.05.04-.07.06-.13.06-.25.16-.38.24-.04-.01-.07-.02-.11-.04-.05-.03-.1-.06-.14-.09-.03-.03-.18-.14-.22-.17-.06-.05-.11-.1-.16-.16.01.02.03.04.02.04s-.04-.04-.09-.11c-.07-.07-.06-.06-.01-.02-.1-.14-.23-.34-.24-.36-.01-.01-.02-.04-.03-.06h0c-.02-.04-.04-.07-.06-.1,0-.01-.01-.02-.01-.03.04.03.06.07.07.1.01-.15.01-.31-.04-.49,0,0-.01-.03-.01-.05.01,0-.04-.19-.04-.21-.02-.17-.02-.33-.01-.5,0-.09.02-.18.02-.28v-.08c.03-.15.13-.36.16-.45.06-.16.13-.31.2-.46.01-.02.1-.16.11-.18.02-.03.04-.05.04-.05.09-.12.18-.24.28-.35.07-.08.15-.17.23-.24.03-.03.05-.05.08-.08.13-.11.11-.1-.06.04.06-.09.21-.17.33-.24.04.01.08-.01.09-.01Z"/>
  <path d="m39.8253,17.8634h0c-.01.01-.03.01-.04.01h.01c0-.01.01-.01.03-.01Z"/>
  <path d="m39.7653,17.8834h.03q-.01,0-.02-.01s0,.01-.01.01Z"/>
  <path d="m38.2753,22.0734c0,.01.01.01.01.02.01.01,0,0,.02.02s.03.03.05.05c-.03-.03-.06-.07-.08-.09Z"/>
  <path d="m39.8053,17.8834c.02,0,.05.01.08.01.04.03.07.04.09.05-.02-.02-.03-.03-.05-.05h0s-.01,0-.01-.01l-.01-.01h-.03c-.01,0-.02,0-.03-.01.01,0,.01.01.02.01-.02.01-.04.01-.06.01Z"/>
  <path d="m34.3853,34.8234c-1.2-1.04-2.68-1.78-4.28-2.29-.18-.1-.36-.22-.54-.32-3.67-1.88-7.68-1.91-11.15-.52-3.22.38-6.61,1.36-8.44,4.01-1.5,2.16-1.31,4.99-.45,7.59v.01c-.04.1-.08.2-.12.3-.06.1-.1.21-.13.33-.6,1.58-.9,3.22-.93,4.93-.01.65.65.9,1.36.85.08.34.16.68.27,1.01,1.29,3.97,4.57,6.5,8.71,6.89,3.53.33,6.62-1.1,8.73-3.42,3.69-1.42,6.85-4.28,8.49-8.07,1.59-3.67,1.74-8.47-1.52-11.3Zm-13.65-1.18c2.38-.1,5.15.05,7.6.81,2.59,1.65,4.4,4.43,4.52,7.7.1,2.57-.81,5.27-2.51,7.21-.15.17-.31.31-.47.47.73-2.48.6-5.25-.71-7.81-1.83-3.59-5.82-6.54-9.96-6.42-1.32.04-2.57.42-3.73,1.03.95-1.2,2.1-2.19,3.44-2.86.64-.07,1.26-.11,1.82-.13Zm1.34,18.33c-3.2-.65-5.88-2.75-7.64-5.46-.38-.58-.77-1.26-1.13-1.99.27-.56.17-1.22-.46-1.64.61-1.16,1.4-2.22,2.36-3.12,1.05-.98,2.4-2,3.9-2.01,1.71-.01,3.43.98,4.69,2.06,2.25,1.93,3.72,4.89,3.52,7.89-.1,1.46-.57,2.95-1.36,4.23-1.25.28-2.57.3-3.88.04Zm-6.86,1.73c-.41-.37-.76-.79-1.07-1.24.77.58,1.6,1.08,2.46,1.48,1.75.81,3.58,1.19,5.4,1.23-2.3.74-4.98.14-6.79-1.47Z"/>
  <path d="m52.9953,32.8434q-.01-.01,0,0c.05.05.07.07.07.06-.03-.02-.05-.04-.07-.06Z"/>
  <path d="m56.1853,33.8534c-.56-1.87-2.31-3.19-4.14-3.67-.83-.22-1.7-.21-2.52-.02-1.67-.44-3.64.16-4.15,1.99-.11.39.06.77.35,1.07-.46.86-.73,1.81-.65,2.77.15,1.84,1.51,3.75,3.48,3.81.88.03,1.57-.44,2.16-1.02,1.23.48,2.59.44,3.78-.35,1.52-.99,2.21-2.85,1.69-4.58Zm-6.56,1.11c-.27-.44-.53-.88-.82-1.31.05-.06.1-.12.14-.16.29-.29.61-.54.94-.73.01.02.02.03.03.04.04.09.08.18.11.27.03.07.05.14.07.22v.01c.03.16.05.32.06.48,0,.04,0,.37.01.26-.01.2-.05.39-.1.58-.06.23-.14.45-.24.67-.05-.1-.13-.21-.2-.33Zm-1.89,1.92c-.01-.03-.01-.05-.01-.05-.02-.16-.05-.32-.06-.48,0-.04.01-.22,0-.24,0-.03.01-.06.02-.09.25.39.51.77.8,1.13-.16.14-.33.25-.51.33-.02-.03-.04-.07-.07-.1v-.01c-.05-.12-.09-.23-.14-.35,0-.03-.02-.1-.03-.14Zm5.95-1.88c-.11.41-.47.95-.79,1.23-.12.1-.24.19-.37.28-.17.11-.15.11-.24.14.08-.18.16-.36.23-.55.43-1.21.29-2.55-.28-3.67.06.02.12.04.14.05.08.03.47.26.19.08.13.08.26.17.39.25,0,0,.01.01.02.01-.01-.01-.02-.01-.03-.03l.04.04c.03.02.06.05.07.06l.06.06c.03.03.16.17.2.21.04.06.13.18.16.22.03.05.06.09.08.14.01.03.04.08.05.13.04.11.08.22.11.33,0,.03.03.23.04.26.04.3.02.41-.07.76Z"/>
  <path d="m80.0853,10.4834C79.1953,4.6634,73.9753.1434,67.8453.0034c-7.04-.16-13.74,5.33-13.82,12.58-.04,3.47,1.17,6.81,3.63,9.29,2.39,2.41,5.79,3.65,9.14,3.8,6.84.32,13.8-5.09,13.78-12.26-.01-1.03-.19-2.01-.49-2.93Zm-7.59-.59c1.08,2.09.92,4.63-.39,6.58-1.19,1.75-3.15,2.76-5.21,2.06-2.04-.7-3.6-2.64-3.66-4.82-.07-2.58,1.56-5.46,3.82-6.73.61-.35,1.25-.52,1.89-.59,1.52.71,2.77,1.98,3.55,3.5Zm-13.44-1.13c.45-.05.89-.22,1.28-.47-1.42,1.84-1.99,4.07-1.84,6.27-.39-2-.18-4.02.56-5.8Z"/>
  <path d="m83.5553,37.1134c-1.15-2.23-3.3-3.68-5.71-4.24-5.44-1.26-11.32,3.15-12.57,8.37-.65,2.69-.23,5.84,2.13,7.61.33.25.67.45,1.03.63.71,1.01,1.68,1.86,2.91,2.4,2.21.98,4.93.87,7.1-.16,2.62-1.24,4.45-3.62,5.27-6.37.78-2.62,1.13-5.72-.16-8.24Zm-3.85,6.98c0,.01-.07.34-.08.42-.05.18-.1.37-.15.55-.07.22-.14.43-.22.65-.01.03-.14.31-.17.4-.08.15-.16.3-.25.44-.03.05-.21.29-.25.35-.09.1-.19.2-.28.31-.08.06-.15.12-.23.17-.06.04-.29.16-.33.19-.1.05-.19.09-.29.13-.05.02-.29.09-.35.12-.12.03-.25.06-.37.08-.18.03-.36.05-.54.07.38-.66.55-1.44.2-2.13-.58-1.15-2.08-.95-2.96-.33-.05.03-.1.07-.15.1h-.01c-.09.02-.18.03-.28.05,0,0-.26.03-.34.02-.18-.01-.35-.04-.53-.07-.04-.01-.06-.01-.08-.01l-.06-.03c-.1-.2-.19-.41-.27-.62-.02-.06-.1-.32-.1-.35-.06-.25-.1-.5-.13-.75-.02-.14-.02-.28-.03-.42.01-.05.03-.47.04-.53.01-.12.04-.24.06-.36.01.03.12-.43.15-.52.02-.06.11-.22.15-.3.09-.15.18-.31.28-.45.62-.9.63-2.45-.5-2.94h0c.17-.13.35-.26.53-.37.1-.05.32-.17.35-.18.21-.09.42-.17.63-.26.07-.03.11-.05.14-.06.04-.01.08-.01.15-.03.22-.05.44-.1.66-.13.2-.03.41-.06.62-.06.03.01.56.03.62.04.2.02.4.05.6.09.06.01.11.02.14.02.03.01.07.03.13.05.38.14.76.28,1.12.47,0,0,.27.16.34.19.14.1.28.2.41.31.34.28.65.59.92.93.03.05.21.31.22.32.1.17.2.35.28.53.22.46.23.51.31.98.17.99.09,1.84-.1,2.92Z"/>
  <path d="m9.2053,61.7334c-3.31.22-5.72,2.86-6.27,6.03-.48,2.72.45,5.67,2.46,7.59.67.64,1.45,1.12,2.27,1.47.99.69,2.07,1.25,3.2,1.61,1.6.51,3.39.59,4.89-.29,1.12-.66,1.91-1.77,2.36-2.97,2.25-5.87-2.2-13.89-8.91-13.44Zm-3.36,9.72c-.1-.38-.17-.78-.2-1.17.05,0,.11.02.16.02.58-.03,1.27-.51,1-1.18-.7-1.74.93-3.79,2.74-3.79,2.21,0,4.03,2.18,4.68,4.11.67,1.99-.04,3.91-1.82,5-1.1.67-2.37.92-3.5.59-1.26-.96-2.31-2.25-3.06-3.58Z"/>
  <path d="m64.3553,61.7634c-5.51-11-23.16-11.23-29.34-.74-3.03,5.15-2.17,11.93,2.52,15.77,4.5,3.68,10.77,4.21,15.93,1.66.23-.11.46-.24.68-.37,2.33.02,4.65-.38,6.62-1.71,4.78-3.23,6.13-9.54,3.59-14.61Zm-10.18,12.78c-.56.47-1.15.9-1.78,1.29-1.66-.1-3.34-.45-4.87-.86-2.49-.68-4.63-1.95-5.97-4.21-1.19-2.01-1.67-4.52-1.25-6.82.62-3.42,3.33-6.28,6.59-7.34,4.09.05,8.17,1.94,10.41,5.45,2.85,4.47.55,9.34-3.13,12.49Zm-12.69,2.25c-4.4-2.18-6.03-7.23-4.68-11.8.08-.26.16-.51.26-.76-.29,4.24,1.92,8.56,5.52,10.88,1.83,1.18,3.95,1.87,6.1,2.31-2.38.61-4.91.5-7.2-.63Zm19.48-4.96c-.56.86-1.26,1.62-2.06,2.24,2.62-3.23,3.84-7.42,1.76-11.44-1.69-3.28-4.59-5.62-7.94-6.96,2.64.41,5.12,1.61,7,3.75,3.01,3.44,3.8,8.5,1.24,12.41Z"/>
</svg>