<svg viewBox="0 0 56.884 59.7808" xmlns="http://www.w3.org/2000/svg" fill="hsl(163, 100%, 21%)">
  <path d="m21.9426,26.6519c-1.35-7.21-2.7-14.42-4.04-21.63-.02-.61-.04-1.21-.05-1.82-.02-1.98-4.19-1.9-4.17.09v.05c-.14.19-.21.42-.16.67.07.38.14.77.21,1.15.11,3.73.41,7.45.95,11.14.17,1.15.32,2.38.53,3.62.03,1.36.03,2.71,0,4.07-.02.83.71,1.29,1.56,1.41.36.74.77,1.45,1.3,2.08.54.64,1.59.8,2.37.63.6-.14,1.65-.69,1.5-1.46Z"/>
  <path d="m40.6626,1.1619h0c-.03-.13-.06-.26-.09-.39-.21-.82-1.43-.87-2.05-.68-.83.26-1.41.89-1.46,1.77-.06,1.05-.13,2.1-.19,3.14-.48.33-.81.82-.78,1.41.16,3.05.2,6.1.13,9.15-.18,2.88-.35,5.75-.53,8.63-.11,1.85,3.42,1.29,3.58-.31.01-.13.02-.26.03-.4h0c0-.04.01-.09.01-.13.18-1.89.3-3.78.4-5.67.25,3.29.33,6.59.23,9.88-.06,2.02,3.56,1.15,3.61-.71.25-8.66-.75-17.28-2.89-25.69Z"/>
  <path d="m56.5326,28.6219c-.05-.35-.25-.68-.51-.95,0-.68,0-1.35-.02-2.03-.05-1.5-2.8-2.54-2.73-.56.2,5.56-.67,11.27-2.85,16.36-2.1,3.74-5.07,7-8.69,9.32-4.24,2.73-9.53,4.21-14.57,3.6-5.26-.64-9.98-3.48-14.5-6.08-.59-.34-1.2-.71-1.81-1.1-2.87-3.63-4.98-7.83-6.61-12.16-.38-1-2.23-2.12-2.64-.55-.44,1.67-.4,3.31-.01,4.87-.81-.4-1.71-.29-1.58.86.65,5.45,4.18,10.19,8.73,13.12,3.44,2.21,7.32,3.45,11.31,4.18,1.65.77,3.39,1.39,5.25,1.79,5.2,1.14,10.33.22,14.82-2.07.96-.27,1.91-.57,2.84-.95,4.97-2.03,8.93-5.81,11.24-10.64,2.52-5.25,3.18-11.29,2.33-17.01ZM12.8726,52.7619c-4.28-1.84-8.1-5.14-9.57-9.56,1.28,1.98,3.03,3.71,4.87,5.05.47.34.96.66,1.45.98,1.07,1.29,2.22,2.5,3.45,3.61-.06-.03-.13-.05-.2-.08Z"/>
</svg>